<?xml version="1.0" encoding="UTF-8" standalone="no"?>
<!DOCTYPE svg PUBLIC "-//W3C//DTD SVG 1.1//EN" "http://www.w3.org/Graphics/SVG/1.1/DTD/svg11.dtd">
<svg version="1.1" xmlns="http://www.w3.org/2000/svg" xmlns:xlink="http://www.w3.org/1999/xlink" preserveAspectRatio="xMidYMid meet" viewBox="0 0 382 510.78" width="382" height="510.78"><defs><path d="M382 150.86C382 326.91 382 424.72 382 444.28C382 481.04 352.26 510.78 315.63 510.78C290.72 510.78 91.41 510.78 66.5 510.78C29.74 510.78 0 481.04 0 444.28C0 406.51 0 104.27 0 66.5C0 29.74 29.74 0 66.5 0C66.5 0 123.42 0 237.27 0C266.22 30.17 367.53 135.77 382 150.86Z" id="fgzsD9Ceb"></path><path d="M382 150.86C382 326.91 382 424.72 382 444.28C382 481.04 352.26 510.78 315.63 510.78C290.72 510.78 91.41 510.78 66.5 510.78C29.74 510.78 0 481.04 0 444.28C0 406.51 0 104.27 0 66.5C0 29.74 29.74 0 66.5 0C66.5 0 123.42 0 237.27 0C266.22 30.17 367.53 135.77 382 150.86Z" id="b5ZPEi5hj6"></path><path d="M382 149.71L237.14 0L237.14 149.71L382 149.71Z" id="b2cikBxQon"></path><path d="M382 149.71L237.14 0L237.14 149.71L382 149.71Z" id="afUsm1nmv"></path><path d="M232.71 333.32C227.72 351.87 223.61 367.68 223.61 368.4C223.61 371.51 224.98 371.96 233.92 371.96C243.78 371.96 242.91 372.68 245.7 361.85C245.83 361.38 246.45 359.02 247.57 354.78L257.38 354.78L267.14 354.78C268.32 359.29 268.98 361.8 269.11 362.3C270.15 366.45 271.36 370.34 271.79 370.93C272.4 371.83 273.99 371.96 282.59 371.96C293.5 371.96 294.32 371.7 294.32 368.33C294.32 365.93 271.9 281.72 270.97 280.55C269.88 279.26 250.36 278.8 248.33 280.04C246.8 281.01 247.13 279.84 232.71 333.32ZM260.89 330.93C260.89 331.51 259.79 331.77 257.27 331.77C257.03 331.77 255.82 331.77 253.65 331.77C253.88 330.68 254.01 330.07 254.03 329.95C255.19 324.25 257.21 317.44 257.6 317.9C257.82 318.22 258.64 321.07 259.46 324.31C260.23 327.49 260.89 330.54 260.89 330.93Z" id="crF9kt1Nt"></path><path d="M128.43 281.77L128.43 325.63L128.43 369.48C129.2 370.22 129.62 370.63 129.71 370.71C130.77 371.81 131.83 371.94 137.99 371.94C144.15 371.94 145.21 371.81 146.27 370.71C146.35 370.63 146.78 370.22 147.54 369.48L147.81 345.97L148.07 322.39C149.31 327.44 150.01 330.25 150.14 330.81C157.52 360.99 160.07 370.39 160.92 371.1C162.19 372.26 173.82 372.26 175.09 371.1C176.15 370.19 176.47 368.96 183.42 341.5C183.76 340.18 185.42 333.59 188.41 321.74C188.57 336.12 188.66 344.11 188.68 345.71C188.84 358.86 189.05 369.74 189.1 369.8C189.16 369.87 189.58 370.39 190.06 370.9C190.75 371.75 192.39 371.94 199.56 371.94C207.25 371.94 208.32 371.81 209.43 370.71C209.52 370.63 209.94 370.22 210.7 369.48L210.7 325.63L210.7 281.77C209.94 281.04 209.52 280.62 209.43 280.54C208.32 279.38 207.2 279.31 195.05 279.31C183.32 279.31 181.78 279.44 180.77 280.41C179.97 281.26 178.33 286.96 174.77 301.14C172.06 311.89 169.62 320.77 169.36 320.9C169.09 321.03 166.76 312.22 164.16 301.34C160.76 287.21 159.11 281.26 158.32 280.41C157.36 279.44 155.88 279.31 144.09 279.31C131.94 279.31 130.82 279.38 129.71 280.54C129.54 280.71 129.11 281.12 128.43 281.77Z" id="aAGMMu1XI"></path><path d="M88.5 282.55C88.57 308.83 88.61 323.43 88.62 326.35C88.79 368.86 88.85 370.16 89.89 371.06C90.76 371.78 93.25 371.97 100.5 371.97C109.2 371.97 110.07 371.84 111.11 370.68C112.27 369.38 112.27 368.54 112.27 325.64C112.27 282.75 112.27 281.9 111.11 280.61C110.07 279.44 109.2 279.31 100.67 279.31C91.51 279.31 91.34 279.31 89.89 280.93C89.71 281.15 89.24 281.69 88.5 282.55Z" id="a1WyetP4V"></path></defs><g><g><g><use xlink:href="#fgzsD9Ceb" opacity="1" fill="#0e1e31" fill-opacity="1"></use><g><use xlink:href="#fgzsD9Ceb" opacity="1" fill-opacity="0" stroke="#000000" stroke-width="1" stroke-opacity="0"></use></g></g><g><use xlink:href="#b5ZPEi5hj6" opacity="1" fill="#000000" fill-opacity="0"></use><g><use xlink:href="#b5ZPEi5hj6" opacity="1" fill-opacity="0" stroke="#000000" stroke-width="1" stroke-opacity="0"></use></g></g><g><use xlink:href="#b2cikBxQon" opacity="1" fill="#ffffff" fill-opacity="0.3"></use><g><use xlink:href="#b2cikBxQon" opacity="1" fill-opacity="0" stroke="#000000" stroke-width="1" stroke-opacity="0"></use></g></g><g><use xlink:href="#afUsm1nmv" opacity="1" fill="#000000" fill-opacity="0"></use><g><use xlink:href="#afUsm1nmv" opacity="1" fill-opacity="0" stroke="#000000" stroke-width="1" stroke-opacity="0"></use></g></g><g><use xlink:href="#crF9kt1Nt" opacity="1" fill="#ffffff" fill-opacity="1"></use><g><use xlink:href="#crF9kt1Nt" opacity="1" fill-opacity="0" stroke="#000000" stroke-width="1" stroke-opacity="0"></use></g></g><g><use xlink:href="#aAGMMu1XI" opacity="1" fill="#ffffff" fill-opacity="1"></use><g><use xlink:href="#aAGMMu1XI" opacity="1" fill-opacity="0" stroke="#000000" stroke-width="1" stroke-opacity="0"></use></g></g><g><use xlink:href="#a1WyetP4V" opacity="1" fill="#ffffff" fill-opacity="1"></use><g><use xlink:href="#a1WyetP4V" opacity="1" fill-opacity="0" stroke="#000000" stroke-width="1" stroke-opacity="0"></use></g></g></g></g></svg>