<?xml version="1.0" encoding="UTF-8" standalone="no"?>
<!DOCTYPE svg PUBLIC "-//W3C//DTD SVG 1.1//EN" "http://www.w3.org/Graphics/SVG/1.1/DTD/svg11.dtd">
<svg version="1.1" xmlns="http://www.w3.org/2000/svg" xmlns:xlink="http://www.w3.org/1999/xlink" preserveAspectRatio="xMidYMid meet" viewBox="0 0 382 510.7" width="382" height="510.7"><defs><path d="M237.32 0.65L382 151.59C382 327.54 382 425.29 382 444.84C382 481.55 352.2 511.35 315.49 511.35C290.59 511.35 91.41 511.35 66.51 511.35C29.8 511.35 0 481.55 0 444.84C0 407.07 0 104.93 0 67.16C0 30.45 29.8 0.65 66.51 0.65C66.51 0.65 123.45 0.65 237.32 0.65Z" id="a1m5ch7Czi"></path><path d="M237.1 150.3L382 150.3L237.1 0.65L237.1 150.3Z" id="b3vZ0gLus3"></path><path d="M126.11 255.89C116.39 255.89 108.4 263.88 108.4 273.6C108.4 281.85 108.4 347.84 108.4 356.09C108.4 365.81 116.39 373.8 126.11 373.8C139.09 373.8 242.91 373.8 255.89 373.8C265.61 373.8 273.38 365.81 273.38 356.09C273.38 347.84 273.38 281.85 273.38 273.6C273.38 263.88 265.61 255.89 255.89 255.89C229.93 255.89 139.09 255.89 126.11 255.89ZM180.53 297.14C180.53 307.72 172.11 316.36 161.52 316.36C150.94 316.36 142.31 307.72 142.31 297.14C142.31 286.77 150.94 278.13 161.52 278.13C172.11 278.13 180.53 286.77 180.53 297.14ZM255.89 362.14C242.91 362.14 139.09 362.14 126.11 362.14C122.87 362.14 120.28 359.33 120.28 356.09C120.28 355.86 120.28 354.71 120.28 352.63L143.82 329.1C155.48 340.76 161.96 347.24 163.25 348.53C165.63 350.91 169.3 350.91 171.67 348.53C174.93 345.28 191.19 329.01 220.48 299.73L261.72 340.97L261.72 356.09L261.72 356.09C259.99 360.12 258.05 362.14 255.89 362.14Z" id="b1AbgAfXxS"></path></defs><g><g><g><use xlink:href="#a1m5ch7Czi" opacity="1" fill="#048440" fill-opacity="1"></use><g><use xlink:href="#a1m5ch7Czi" opacity="1" fill-opacity="0" stroke="#000000" stroke-width="1" stroke-opacity="0"></use></g></g><g><use xlink:href="#b3vZ0gLus3" opacity="1" fill="#ffffff" fill-opacity="0.3"></use><g><use xlink:href="#b3vZ0gLus3" opacity="1" fill-opacity="0" stroke="#000000" stroke-width="1" stroke-opacity="0"></use></g></g><g><use xlink:href="#b1AbgAfXxS" opacity="1" fill="#ffffff" fill-opacity="1"></use><g><use xlink:href="#b1AbgAfXxS" opacity="1" fill-opacity="0" stroke="#000000" stroke-width="1" stroke-opacity="0"></use></g></g></g></g></svg>