<?xml version="1.0" encoding="UTF-8" standalone="no"?>
<!DOCTYPE svg PUBLIC "-//W3C//DTD SVG 1.1//EN" "http://www.w3.org/Graphics/SVG/1.1/DTD/svg11.dtd">
<svg version="1.1" xmlns="http://www.w3.org/2000/svg" xmlns:xlink="http://www.w3.org/1999/xlink" preserveAspectRatio="xMidYMid meet" viewBox="0 0 478.24 640" width="478.24" height="640"><defs><path d="M297.01 0.63L478.24 189.53C478.24 409.95 478.24 532.41 478.24 556.91C478.24 602.71 440.9 640.05 395.1 640.05C363.9 640.05 114.34 640.05 83.15 640.05C37.15 640.05 0 602.71 0 556.91C0 509.59 0 131.09 0 83.77C0 37.78 37.15 0.63 83.15 0.63C111.66 0.63 182.95 0.63 297.01 0.63Z" id="c1yZVkeZrZ"></path><path d="M296.81 187.95L478.24 187.95L296.81 0.63L296.81 187.95Z" id="c1iQj2Ansx"></path><path d="M176.12 289.18C176.12 284.47 172.39 280.73 167.67 280.73C165.31 280.73 146.44 280.73 144.08 280.73C139.36 280.73 135.63 284.47 135.63 289.18C135.63 292.09 135.63 306.64 135.63 332.82C127.73 355.94 123.34 368.78 122.46 371.35C118.73 382.16 120.49 394.15 127.18 403.39C133.66 412.63 144.48 418.13 155.88 418.13C167.28 418.13 177.89 412.63 184.57 403.39C191.26 394.15 193.03 382.16 189.29 371.35C188.41 368.78 184.02 355.94 176.12 332.82C176.12 306.64 176.12 292.09 176.12 289.18ZM140.94 393.36C137.6 388.65 136.61 382.36 138.58 376.85C138.87 375.99 140.31 371.66 142.9 363.88L168.65 363.88C171.37 371.66 172.87 375.99 173.17 376.85C174.94 382.36 174.16 388.65 170.62 393.36C163.94 403 147.82 403 140.94 393.36ZM103.59 70.41C103.59 75.12 107.32 78.86 112.04 78.86C114.18 78.86 124.86 78.86 144.08 78.86L144.08 114.63C124.86 114.63 114.18 114.63 112.04 114.63C107.32 114.63 103.59 118.37 103.59 123.09C103.59 124.93 103.59 139.72 103.59 141.56C103.59 146.28 107.32 150.21 112.04 150.21C114.18 150.21 124.86 150.21 144.08 150.21L144.08 185.79C124.86 185.79 114.18 185.79 112.04 185.79C107.32 185.79 103.59 189.53 103.59 194.24C103.59 196.11 103.59 211.05 103.59 212.92C103.59 217.63 107.32 221.37 112.04 221.37C114.18 221.37 124.86 221.37 144.08 221.37C144.08 237.65 144.08 246.69 144.08 248.5C144.08 253.21 148.01 256.95 152.73 256.95C157.43 256.95 195.01 256.95 199.71 256.95C204.23 256.95 208.16 253.21 208.16 248.5C208.16 246.63 208.16 231.69 208.16 229.82C208.16 225.3 204.23 221.37 199.71 221.37C197.56 221.37 186.82 221.37 167.47 221.37L167.47 185.79C186.82 185.79 197.56 185.79 199.71 185.79C204.23 185.79 208.16 182.06 208.16 177.34C208.16 175.47 208.16 160.53 208.16 158.67C208.16 153.95 204.23 150.21 199.71 150.21C197.56 150.21 186.82 150.21 167.47 150.21L167.47 114.63C186.82 114.63 197.56 114.63 199.71 114.63C204.23 114.63 208.16 110.7 208.16 105.99C208.16 104.14 208.16 89.36 208.16 87.51C208.16 82.79 204.23 78.86 199.71 78.86C197.56 78.86 186.82 78.86 167.47 78.86C167.47 59.28 167.47 48.41 167.47 46.23C167.47 46.23 103.59 46.43 103.59 46.43C103.59 46.43 103.59 68.01 103.59 70.41Z" id="b2uFSDEz3b"></path><path d="M388.73 496.24C388.73 470.43 388.73 456.09 388.73 453.22C388.73 425.52 366.33 403.13 338.64 403.13C310.94 403.13 288.54 425.52 288.54 453.22C288.54 456.09 288.54 470.43 288.54 496.24L259.07 496.24C259.07 470.43 259.07 456.09 259.07 453.22C259.07 409.61 295.02 373.66 338.64 373.66C382.25 373.66 418.2 409.61 418.2 453.22C418.2 456.09 418.2 470.43 418.2 496.24L388.73 496.24Z" id="c1DG5ypFt"></path><path d="M388.73 484.46C388.73 458.64 388.73 444.3 388.73 441.43C388.73 413.73 366.33 391.34 338.64 391.34C310.94 391.34 288.54 413.73 288.54 441.43C288.54 444.3 288.54 458.64 288.54 484.46L259.07 484.46C259.07 458.64 259.07 444.3 259.07 441.43C259.07 397.82 295.02 361.87 338.64 361.87C382.25 361.87 418.2 397.82 418.2 441.43C418.2 444.3 418.2 458.64 418.2 484.46L388.73 484.46Z" id="cPbya7wxW"></path><path d="M315.06 512.75C315.06 521.59 319.78 529.25 326.85 532.78C326.85 534.32 326.85 546.58 326.85 548.11C326.85 554.59 332.15 559.89 338.64 559.89C345.12 559.89 350.42 554.59 350.42 548.11C350.42 546.58 350.42 534.32 350.42 532.78C357.49 528.66 362.21 521 362.21 512.75C362.21 499.78 351.6 489.17 338.64 489.17C325.67 489.17 315.06 499.78 315.06 512.75Z" id="a24PSinCG"></path><path d="M250.23 459.7C240.21 459.7 232.55 467.37 232.55 477.38C232.55 488.58 232.55 578.16 232.55 589.36C232.55 599.38 240.21 607.04 250.23 607.04C267.91 607.04 409.36 607.04 427.04 607.04C437.06 607.04 444.72 599.38 444.72 589.36C444.72 578.16 444.72 488.58 444.72 477.38C444.72 467.37 437.06 459.7 427.04 459.7C391.68 459.7 267.91 459.7 250.23 459.7ZM350.42 559.89C350.42 566.38 345.12 571.68 338.64 571.68C332.15 571.68 326.85 566.38 326.85 559.89C326.85 558.36 326.85 546.1 326.85 544.57C319.78 540.45 315.06 532.78 315.06 524.53C315.06 511.57 325.67 500.96 338.64 500.96C351.6 500.96 362.21 511.57 362.21 524.53C362.21 533.37 357.49 541.04 350.42 544.57C350.42 547.64 350.42 558.36 350.42 559.89Z" id="a5fBr3LS99"></path><path d="M250.23 447.92C240.21 447.92 232.55 455.58 232.55 465.6C232.55 476.8 232.55 566.38 232.55 577.58C232.55 587.59 240.21 595.26 250.23 595.26C267.91 595.26 409.36 595.26 427.04 595.26C437.06 595.26 444.72 587.59 444.72 577.58C444.72 566.38 444.72 476.8 444.72 465.6C444.72 455.58 437.06 447.92 427.04 447.92C391.68 447.92 267.91 447.92 250.23 447.92ZM350.42 548.11C350.42 554.59 345.12 559.89 338.64 559.89C332.15 559.89 326.85 554.59 326.85 548.11C326.85 546.58 326.85 534.32 326.85 532.78C319.78 528.66 315.06 521 315.06 512.75C315.06 499.78 325.67 489.17 338.64 489.17C351.6 489.17 362.21 499.78 362.21 512.75C362.21 521.59 357.49 529.25 350.42 532.78C350.42 535.85 350.42 546.58 350.42 548.11Z" id="baHELBrCe"></path></defs><g><g><g><use xlink:href="#c1yZVkeZrZ" opacity="1" fill="#ffb11f" fill-opacity="1"></use><g><use xlink:href="#c1yZVkeZrZ" opacity="1" fill-opacity="0" stroke="#000000" stroke-width="1" stroke-opacity="0"></use></g></g><g><use xlink:href="#c1iQj2Ansx" opacity="1" fill="#ffffff" fill-opacity="0.3"></use><g><use xlink:href="#c1iQj2Ansx" opacity="1" fill-opacity="0" stroke="#000000" stroke-width="1" stroke-opacity="0"></use></g></g><g><use xlink:href="#b2uFSDEz3b" opacity="1" fill="#ffffff" fill-opacity="1"></use><g><use xlink:href="#b2uFSDEz3b" opacity="1" fill-opacity="0" stroke="#000000" stroke-width="1" stroke-opacity="0"></use></g></g><g><use xlink:href="#c1DG5ypFt" opacity="1" fill="#231f20" fill-opacity="1"></use><g><use xlink:href="#c1DG5ypFt" opacity="1" fill-opacity="0" stroke="#000000" stroke-width="1" stroke-opacity="0"></use></g></g><g><use xlink:href="#cPbya7wxW" opacity="1" fill="#4f5d73" fill-opacity="1"></use><g><use xlink:href="#cPbya7wxW" opacity="1" fill-opacity="0" stroke="#000000" stroke-width="1" stroke-opacity="0"></use></g></g><g><use xlink:href="#a24PSinCG" opacity="1" fill="#4f5d73" fill-opacity="1"></use><g><use xlink:href="#a24PSinCG" opacity="1" fill-opacity="0" stroke="#000000" stroke-width="1" stroke-opacity="0"></use></g></g><g><use xlink:href="#a5fBr3LS99" opacity="1" fill="#231f20" fill-opacity="1"></use><g><use xlink:href="#a5fBr3LS99" opacity="1" fill-opacity="0" stroke="#000000" stroke-width="1" stroke-opacity="0"></use></g></g><g><use xlink:href="#baHELBrCe" opacity="1" fill="#ffffff" fill-opacity="1"></use><g><use xlink:href="#baHELBrCe" opacity="1" fill-opacity="0" stroke="#000000" stroke-width="1" stroke-opacity="0"></use></g></g></g></g></svg>