<?xml version="1.0" encoding="UTF-8" standalone="no"?>
<!DOCTYPE svg PUBLIC "-//W3C//DTD SVG 1.1//EN" "http://www.w3.org/Graphics/SVG/1.1/DTD/svg11.dtd">
<svg version="1.1" xmlns="http://www.w3.org/2000/svg" xmlns:xlink="http://www.w3.org/1999/xlink" preserveAspectRatio="xMidYMid meet" viewBox="0 0 640 640" width="640" height="640"><defs><path d="M237.27 0L382 150.86C382 326.91 382 424.72 382 444.28C382 481.04 352.26 510.78 315.63 510.78C290.72 510.78 91.41 510.78 66.5 510.78C29.74 510.78 0 481.04 0 444.28C0 406.51 0 104.27 0 66.5C0 29.74 29.74 0 66.5 0C66.5 0 123.42 0 237.27 0Z" id="b1C35rWciJ"></path><path d="M237.14 149.71L382 149.71L237.14 0L237.14 149.71Z" id="b18mlagBlG"></path><path d="M184.58 281.35L208.36 281.35L208.36 374.01L184.58 374.01L184.58 281.35Z" id="aOQRc9ULz"></path><path d="M206.32 281.35L250.23 281.35L250.23 302.41L206.32 302.41L206.32 281.35Z" id="a9h4nNmozC"></path><path d="M39.38 281.35L116.83 281.35L116.83 302.41L39.38 302.41L39.38 281.35Z" id="e2M72M9gw"></path><path d="M206.32 316.36L242.33 316.36L242.33 337.42L206.32 337.42L206.32 316.36Z" id="aKlqZoOuS"></path><path d="M64.35 300.37L90.16 300.37L90.16 374.01L64.35 374.01L64.35 300.37Z" id="beyjDwixN"></path><path d="M132.96 281.35L156.73 281.35L156.73 374.01L132.96 374.01L132.96 281.35Z" id="e8sjndvuMu"></path><path d="M267.27 281.35L291.05 281.35L291.05 374.01L267.27 374.01L267.27 281.35Z" id="c4bWPZkf4"></path><path d="M289.01 281.35L332.91 281.35L332.91 302.41L289.01 302.41L289.01 281.35Z" id="crRz0yLYm"></path><path d="M289.01 316.36L325.01 316.36L325.01 337.42L289.01 337.42L289.01 316.36Z" id="ah1jbUsa1"></path></defs><g><g><g><use xlink:href="#b1C35rWciJ" opacity="1" fill="#0e1e31" fill-opacity="1"></use><g><use xlink:href="#b1C35rWciJ" opacity="1" fill-opacity="0" stroke="#000000" stroke-width="1" stroke-opacity="0"></use></g></g><g><use xlink:href="#b18mlagBlG" opacity="1" fill="#ffffff" fill-opacity="0.3"></use><g><use xlink:href="#b18mlagBlG" opacity="1" fill-opacity="0" stroke="#000000" stroke-width="1" stroke-opacity="0"></use></g></g><g><use xlink:href="#aOQRc9ULz" opacity="1" fill="#ffffff" fill-opacity="1"></use></g><g><use xlink:href="#a9h4nNmozC" opacity="1" fill="#ffffff" fill-opacity="1"></use></g><g><use xlink:href="#e2M72M9gw" opacity="1" fill="#ffffff" fill-opacity="1"></use></g><g><use xlink:href="#aKlqZoOuS" opacity="1" fill="#ffffff" fill-opacity="1"></use></g><g><use xlink:href="#beyjDwixN" opacity="1" fill="#ffffff" fill-opacity="1"></use></g><g><use xlink:href="#e8sjndvuMu" opacity="1" fill="#ffffff" fill-opacity="1"></use></g><g><use xlink:href="#c4bWPZkf4" opacity="1" fill="#ffffff" fill-opacity="1"></use></g><g><use xlink:href="#crRz0yLYm" opacity="1" fill="#ffffff" fill-opacity="1"></use></g><g><use xlink:href="#ah1jbUsa1" opacity="1" fill="#ffffff" fill-opacity="1"></use></g></g></g></svg>