<?xml version="1.0" encoding="UTF-8" standalone="no"?>
<!DOCTYPE svg PUBLIC "-//W3C//DTD SVG 1.1//EN" "http://www.w3.org/Graphics/SVG/1.1/DTD/svg11.dtd">
<svg version="1.1" xmlns="http://www.w3.org/2000/svg" xmlns:xlink="http://www.w3.org/1999/xlink" preserveAspectRatio="xMidYMid meet" viewBox="0 0 382 510.7" width="382" height="510.7"><defs><path d="M382 151.59C382 327.54 382 425.29 382 444.84C382 481.55 352.2 511.35 315.49 511.35C290.59 511.35 91.41 511.35 66.51 511.35C29.8 511.35 0 481.55 0 444.84C0 407.07 0 104.93 0 67.16C0 30.45 29.8 0.65 66.51 0.65C66.51 0.65 123.45 0.65 237.32 0.65C266.26 30.84 367.53 136.5 382 151.59Z" id="b2r3qzI8AS"></path><path d="M382 151.59C382 327.54 382 425.29 382 444.84C382 481.55 352.2 511.35 315.49 511.35C290.59 511.35 91.41 511.35 66.51 511.35C29.8 511.35 0 481.55 0 444.84C0 407.07 0 104.93 0 67.16C0 30.45 29.8 0.65 66.51 0.65C66.51 0.65 123.45 0.65 237.32 0.65C266.26 30.84 367.53 136.5 382 151.59Z" id="cglK64t4q"></path><path d="M382 150.3L237.1 0.65L237.1 150.3L382 150.3Z" id="alq8RKvPc"></path><path d="M382 150.3L237.1 0.65L237.1 150.3L382 150.3Z" id="c2Jd403SvP"></path><path d="M67.16 323.27C66.08 322.4 65.43 321.11 64.78 319.81C64.35 318.51 63.92 317.22 63.92 315.71C63.92 314.2 64.35 312.9 64.78 311.6C65.43 310.31 66.08 309.01 67.16 308.15C71.3 304 104.47 270.84 108.62 266.69C109.48 265.61 110.78 264.96 112.07 264.31C113.37 263.88 114.66 263.45 116.18 263.45C119.2 263.45 121.79 264.75 123.73 266.69C125.89 268.63 126.97 271.44 126.97 274.25C126.97 275.76 126.76 277.05 126.11 278.57C125.68 279.86 124.81 280.94 123.73 282.02C121.49 284.27 110.26 295.5 90.05 315.71C110.26 335.92 121.49 347.15 123.73 349.39C124.81 350.47 125.68 351.55 126.11 352.85C126.76 354.36 126.97 355.66 126.97 357.17C126.97 359.98 125.89 362.78 123.73 364.73C121.79 366.67 119.2 367.97 116.18 367.97C114.66 367.97 113.37 367.53 112.07 367.1C110.78 366.45 109.48 365.81 108.62 364.73C104.47 360.58 71.3 327.41 67.16 323.27ZM155.69 295.84C153.75 293.9 152.67 291.09 152.67 288.07C152.67 277.49 156.77 267.98 163.9 261.07C170.81 253.95 180.31 249.85 190.89 249.85C201.47 249.85 211.19 253.95 218.1 261.07C225.01 267.98 229.33 277.49 229.33 288.07C229.33 297.35 226.09 305.77 220.69 312.47C215.94 318.3 209.46 322.83 201.69 324.99C201.69 326.83 201.69 341.51 201.69 343.35C201.69 346.16 200.61 348.96 198.67 350.91C196.72 352.85 193.92 354.15 190.89 354.15C188.08 354.15 185.28 352.85 183.33 350.91C181.39 348.96 180.09 346.16 180.09 343.35C180.09 340.58 180.09 318.47 180.09 315.71C180.09 312.68 181.39 310.09 183.33 308.15C185.28 306.21 188.08 304.91 190.89 304.91C195.64 304.91 199.75 302.97 202.77 299.94C205.79 296.92 207.74 292.82 207.74 288.07C207.74 283.53 205.79 279.21 202.77 276.19C199.75 273.17 195.64 271.44 190.89 271.44C186.36 271.44 182.04 273.17 179.02 276.19C175.99 279.21 174.26 283.53 174.26 288.07C174.26 291.09 172.97 293.9 171.03 295.84C169.08 297.78 166.27 298.86 163.47 298.86C160.44 298.86 157.64 297.78 155.69 295.84ZM198.67 378.55C196.72 380.49 193.92 381.57 190.89 381.57C188.08 381.57 185.28 380.49 183.33 378.55C181.39 376.6 180.09 373.8 180.09 370.77C180.09 367.97 181.39 365.16 183.33 363.21C185.28 361.27 188.08 359.98 190.89 359.98C193.92 359.98 196.72 361.27 198.67 363.21C200.61 365.16 201.69 367.97 201.69 370.77C201.69 373.8 200.61 376.6 198.67 378.55ZM255.67 361.27C255.24 359.98 255.03 358.46 255.03 357.17C255.03 355.66 255.24 354.15 255.67 352.85C256.32 351.55 257.19 350.47 258.05 349.39C260.3 347.15 271.52 335.92 291.74 315.71C271.52 295.5 260.3 284.27 258.05 282.02C257.19 280.94 256.32 279.86 255.67 278.57C255.24 277.27 255.03 275.76 255.03 274.25C255.03 271.44 256.11 268.63 258.05 266.69C259.99 264.75 262.8 263.45 265.82 263.45C267.12 263.45 268.63 263.88 269.93 264.31C271.22 264.96 272.52 265.61 273.38 266.69C277.53 270.84 310.7 304 314.84 308.15C315.71 309.01 316.57 310.31 317 311.6C317.65 312.9 317.87 314.2 317.87 315.71C317.87 317.22 317.65 318.51 317.22 319.81C316.57 321.11 315.71 322.4 314.84 323.27C310.7 327.41 277.53 360.58 273.38 364.73C272.52 365.81 271.22 366.45 269.93 367.1C268.63 367.53 267.12 367.97 265.82 367.97C264.31 367.97 263.02 367.53 261.72 367.1C260.21 366.45 259.13 365.81 258.05 364.73C257.19 363.65 256.32 362.57 255.67 361.27Z" id="d7pw07ltPP"></path><path d="M67.16 323.27C66.08 322.4 65.43 321.11 64.78 319.81C64.35 318.51 63.92 317.22 63.92 315.71C63.92 314.2 64.35 312.9 64.78 311.6C65.43 310.31 66.08 309.01 67.16 308.15C71.3 304 104.47 270.84 108.62 266.69C109.48 265.61 110.78 264.96 112.07 264.31C113.37 263.88 114.66 263.45 116.18 263.45C119.2 263.45 121.79 264.75 123.73 266.69C125.89 268.63 126.97 271.44 126.97 274.25C126.97 275.76 126.76 277.05 126.11 278.57C125.68 279.86 124.81 280.94 123.73 282.02C121.49 284.27 110.26 295.5 90.05 315.71C110.26 335.92 121.49 347.15 123.73 349.39C124.81 350.47 125.68 351.55 126.11 352.85C126.76 354.36 126.97 355.66 126.97 357.17C126.97 359.98 125.89 362.78 123.73 364.73C121.79 366.67 119.2 367.97 116.18 367.97C114.66 367.97 113.37 367.53 112.07 367.1C110.78 366.45 109.48 365.81 108.62 364.73C104.47 360.58 71.3 327.41 67.16 323.27ZM155.69 295.84C153.75 293.9 152.67 291.09 152.67 288.07C152.67 277.49 156.77 267.98 163.9 261.07C170.81 253.95 180.31 249.85 190.89 249.85C201.47 249.85 211.19 253.95 218.1 261.07C225.01 267.98 229.33 277.49 229.33 288.07C229.33 297.35 226.09 305.77 220.69 312.47C215.94 318.3 209.46 322.83 201.69 324.99C201.69 326.83 201.69 341.51 201.69 343.35C201.69 346.16 200.61 348.96 198.67 350.91C196.72 352.85 193.92 354.15 190.89 354.15C188.08 354.15 185.28 352.85 183.33 350.91C181.39 348.96 180.09 346.16 180.09 343.35C180.09 340.58 180.09 318.47 180.09 315.71C180.09 312.68 181.39 310.09 183.33 308.15C185.28 306.21 188.08 304.91 190.89 304.91C195.64 304.91 199.75 302.97 202.77 299.94C205.79 296.92 207.74 292.82 207.74 288.07C207.74 283.53 205.79 279.21 202.77 276.19C199.75 273.17 195.64 271.44 190.89 271.44C186.36 271.44 182.04 273.17 179.02 276.19C175.99 279.21 174.26 283.53 174.26 288.07C174.26 291.09 172.97 293.9 171.03 295.84C169.08 297.78 166.27 298.86 163.47 298.86C160.44 298.86 157.64 297.78 155.69 295.84ZM198.67 378.55C196.72 380.49 193.92 381.57 190.89 381.57C188.08 381.57 185.28 380.49 183.33 378.55C181.39 376.6 180.09 373.8 180.09 370.77C180.09 367.97 181.39 365.16 183.33 363.21C185.28 361.27 188.08 359.98 190.89 359.98C193.92 359.98 196.72 361.27 198.67 363.21C200.61 365.16 201.69 367.97 201.69 370.77C201.69 373.8 200.61 376.6 198.67 378.55ZM255.67 361.27C255.24 359.98 255.03 358.46 255.03 357.17C255.03 355.66 255.24 354.15 255.67 352.85C256.32 351.55 257.19 350.47 258.05 349.39C260.3 347.15 271.52 335.92 291.74 315.71C271.52 295.5 260.3 284.27 258.05 282.02C257.19 280.94 256.32 279.86 255.67 278.57C255.24 277.27 255.03 275.76 255.03 274.25C255.03 271.44 256.11 268.63 258.05 266.69C259.99 264.75 262.8 263.45 265.82 263.45C267.12 263.45 268.63 263.88 269.93 264.31C271.22 264.96 272.52 265.61 273.38 266.69C277.53 270.84 310.7 304 314.84 308.15C315.71 309.01 316.57 310.31 317 311.6C317.65 312.9 317.87 314.2 317.87 315.71C317.87 317.22 317.65 318.51 317.22 319.81C316.57 321.11 315.71 322.4 314.84 323.27C310.7 327.41 277.53 360.58 273.38 364.73C272.52 365.81 271.22 366.45 269.93 367.1C268.63 367.53 267.12 367.97 265.82 367.97C264.31 367.97 263.02 367.53 261.72 367.1C260.21 366.45 259.13 365.81 258.05 364.73C257.19 363.65 256.32 362.57 255.67 361.27Z" id="b2PHqIp81E"></path><path d="M323.6 258.85L323.6 372.52L251.65 372.52L251.65 258.85L323.6 258.85Z" id="e1i5RkGqak"></path><path d="M132.88 260.94L132.88 374.6L60.94 374.6L60.94 260.94L132.88 260.94Z" id="a1hRNA9GZm"></path></defs><g><g><g><use xlink:href="#b2r3qzI8AS" opacity="1" fill="#7542ed" fill-opacity="1"></use><g><use xlink:href="#b2r3qzI8AS" opacity="1" fill-opacity="0" stroke="#000000" stroke-width="1" stroke-opacity="0"></use></g></g><g><use xlink:href="#cglK64t4q" opacity="1" fill="#000000" fill-opacity="0"></use><g><use xlink:href="#cglK64t4q" opacity="1" fill-opacity="0" stroke="#000000" stroke-width="1" stroke-opacity="0"></use></g></g><g><use xlink:href="#alq8RKvPc" opacity="1" fill="#ffffff" fill-opacity="0.3"></use><g><use xlink:href="#alq8RKvPc" opacity="1" fill-opacity="0" stroke="#000000" stroke-width="1" stroke-opacity="0"></use></g></g><g><use xlink:href="#c2Jd403SvP" opacity="1" fill="#000000" fill-opacity="0"></use><g><use xlink:href="#c2Jd403SvP" opacity="1" fill-opacity="0" stroke="#000000" stroke-width="1" stroke-opacity="0"></use></g></g><g><use xlink:href="#d7pw07ltPP" opacity="1" fill="#ffffff" fill-opacity="1"></use><g><use xlink:href="#d7pw07ltPP" opacity="1" fill-opacity="0" stroke="#000000" stroke-width="1" stroke-opacity="0"></use></g></g><g><use xlink:href="#b2PHqIp81E" opacity="1" fill="#000000" fill-opacity="0"></use><g><use xlink:href="#b2PHqIp81E" opacity="1" fill-opacity="0" stroke="#000000" stroke-width="1" stroke-opacity="0"></use></g></g><g><use xlink:href="#e1i5RkGqak" opacity="1" fill="#7542ed" fill-opacity="1"></use><g><use xlink:href="#e1i5RkGqak" opacity="1" fill-opacity="0" stroke="#000000" stroke-width="1" stroke-opacity="0"></use></g></g><g><use xlink:href="#a1hRNA9GZm" opacity="1" fill="#7542ed" fill-opacity="1"></use><g><use xlink:href="#a1hRNA9GZm" opacity="1" fill-opacity="0" stroke="#000000" stroke-width="1" stroke-opacity="0"></use></g></g></g></g></svg>